<svg width="160" height="160" viewBox="0 0 160 160" fill="none" xmlns="http://www.w3.org/2000/svg">
<path d="M0 30C0 13.4315 13.4315 0 30 0H130C146.569 0 160 13.4315 160 30V130C160 146.569 146.569 160 130 160H30C13.4315 160 0 146.569 0 130V30Z" fill="#111827"/>
<path d="M86.75 39.9375H92C109.667 39.9375 120.167 47.7083 123.5 63.25C124.542 67.9583 125.062 73.4583 125.062 79.75C125.062 86.0417 124.396 92.0417 123.062 97.75C121.771 103.458 119.771 108.333 117.062 112.375C111.438 120.792 103.083 125 92 125H86.75V39.9375ZM42.75 39.9375H76.375V124.875H42.75V39.9375Z" fill="white"/>
</svg>
