<svg xmlns="http://www.w3.org/2000/svg" width="492" height="70" viewBox="0 0 492 70" fill="none">
<path d="M0 13.125C0 5.87626 5.87629 0 13.125 0H56.8752C64.1242 0 70 5.87626 70 13.125V56.875C70 64.1236 64.1242 70 56.8752 70H13.125C5.87629 70 0 64.1236 0 56.875V13.125Z" fill="#111827"/>
<path d="M37.7783 16H40.1382C48.0795 16 52.7993 19.4715 54.2976 26.4144C54.7659 28.5178 55 30.9748 55 33.7855C55 36.5961 54.7003 39.2765 54.101 41.8266C53.5204 44.3767 52.6214 46.5545 51.404 48.36C48.8755 52.12 45.1202 54 40.1382 54H37.7783V16ZM18 16H33.1147V53.9442H18V16Z" fill="white"/>
<path d="M87.3813 55.1792V11.6364H110.072C116.206 11.6364 120.495 13.2491 122.94 16.4744C125.385 19.6998 126.607 25.3335 126.607 33.3755C126.607 41.439 125.385 47.0942 122.94 50.3411C120.495 53.5665 116.206 55.1792 110.072 55.1792H87.3813ZM98.5137 47.7285H107.06C109.941 47.7285 112.058 46.9652 113.412 45.4385C114.787 43.8903 115.475 39.8693 115.475 33.3755C115.475 26.9248 114.787 22.936 113.412 21.4093C112.058 19.8611 109.941 19.087 107.06 19.087H98.5137V47.7285Z" fill="#111827"/>
<path d="M150.436 55.5663C143.102 55.5663 137.961 53.8246 135.014 50.3411C132.089 46.8363 130.626 42.0734 130.626 36.0527C130.626 29.8814 132.099 25.097 135.047 21.6996C137.993 18.2807 143.058 16.5712 150.239 16.5712C157.595 16.5712 162.681 18.3022 165.497 21.7641C168.335 25.2261 169.754 29.9781 169.754 36.0204C169.754 37.2246 169.678 38.2996 169.525 39.2458H140.252V32.6982H159.243L158.85 33.6659C158.85 29.9889 158.086 27.3871 156.558 25.8604C155.052 24.3337 152.946 23.5703 150.239 23.5703C147.576 23.5703 145.415 24.3982 143.756 26.0539C142.097 27.7096 141.267 31.0425 141.267 36.0527C141.267 40.9552 142.086 44.2667 143.724 45.9869C145.382 47.7071 147.62 48.5672 150.436 48.5672V55.5663ZM150.436 48.5672C152.073 48.5672 153.426 48.3522 154.496 47.9221C155.565 47.492 156.416 46.7717 157.049 45.7611C157.704 44.7504 158.261 43.5571 158.719 42.1809L168.575 44.9225C168.095 47.4383 167.047 49.4703 165.431 51.0185C163.838 52.5667 161.907 53.7171 159.636 54.4697C157.388 55.2008 154.321 55.5663 150.436 55.5663V48.5672Z" fill="#111827"/>
<path d="M175.159 55.1792V16.9583H183.704L186.193 22.6995V55.1792H175.159ZM198.21 55.1792V33.7303C198.21 30.2254 197.784 27.7419 196.933 26.2796C196.082 24.8175 194.717 24.0864 192.84 24.0864C190.853 24.0864 189.227 24.9142 187.961 26.57C186.717 28.2256 186.095 30.72 186.095 34.0528L180.267 31.7629C180.267 28.1289 181.882 24.6992 185.112 21.4738C188.343 18.2484 192.141 16.6357 196.507 16.6357C201.571 16.6357 204.955 18.2484 206.657 21.4738C208.36 24.6992 209.211 28.4944 209.211 32.8595V55.1792H198.21ZM221.13 55.1792V33.7303C221.13 30.2254 220.726 27.7419 219.918 26.2796C219.11 24.8175 217.757 24.0864 215.858 24.0864C213.872 24.0864 212.257 24.9142 211.012 26.57C209.767 28.2256 209.145 30.72 209.145 34.0528L203.285 31.7629C203.285 28.2364 204.9 24.839 208.131 21.5706C211.361 18.2807 215.17 16.6357 219.558 16.6357C224.6 16.6357 227.951 18.2484 229.61 21.4738C231.291 24.6777 232.131 28.4729 232.131 32.8595V55.1792H221.13Z" fill="#111827"/>
<path d="M257.326 55.5018C250.211 55.5018 245.135 53.8138 242.101 50.4379C239.067 47.0405 237.55 42.1916 237.55 35.8913C237.55 29.6126 239.067 24.8175 242.101 21.5061C245.135 18.1732 250.211 16.5067 257.326 16.5067C264.42 16.5067 269.474 18.1732 272.486 21.5061C275.521 24.8175 277.038 29.6126 277.038 35.8913C277.038 42.1916 275.521 47.0405 272.486 50.4379C269.474 53.8138 264.42 55.5018 257.326 55.5018ZM257.326 48.1479C259.859 48.1479 261.943 47.3523 263.58 45.7611C265.217 44.1699 266.036 40.9014 266.036 35.9559C266.036 31.0317 265.217 27.7849 263.58 26.2152C261.943 24.6454 259.859 23.8606 257.326 23.8606C254.772 23.8606 252.677 24.6454 251.04 26.2152C249.403 27.7849 248.584 31.0317 248.584 35.9559C248.584 40.9014 249.403 44.1699 251.04 45.7611C252.677 47.3523 254.772 48.1479 257.326 48.1479Z" fill="#111827"/>
<path d="M301.591 55.5018C296.483 55.5018 292.183 54.7384 288.69 53.2117C285.198 51.685 282.938 49.0617 281.913 45.3418L291.539 41.8583C292.041 44.0516 293.176 45.6965 294.944 46.7932C296.712 47.8898 298.982 48.4381 301.754 48.4381C304.047 48.4381 305.826 48.0941 307.092 47.406C308.358 46.6964 308.991 45.7181 308.991 44.4709C308.991 42.7722 307.856 41.6863 305.586 41.2132C303.316 40.7402 300.412 40.2241 296.876 39.6651C292.445 38.9985 288.887 37.8051 286.202 36.0848C283.539 34.3432 282.207 31.5371 282.207 27.6666C282.207 23.8821 283.855 21.0975 287.152 19.3128C290.447 17.528 294.77 16.6357 300.117 16.6357C305.335 16.6357 309.602 17.3883 312.92 18.8935C316.238 20.3772 318.366 22.936 319.305 26.57L309.645 29.9888C309.143 28.0321 308.041 26.4839 306.339 25.3443C304.636 24.2046 302.519 23.6349 299.986 23.6349C297.607 23.6349 295.85 23.9897 294.715 24.6992C293.602 25.4088 293.045 26.3872 293.045 27.6343C293.045 29.2685 294.126 30.3329 296.287 30.8275C298.448 31.3005 301.219 31.7951 304.604 32.3112C308.947 32.9348 312.571 34.0206 315.474 35.5688C318.399 37.0955 319.861 39.7941 319.861 43.6645C319.861 47.9006 318.278 50.9324 315.114 52.7602C311.949 54.5879 307.441 55.5018 301.591 55.5018Z" fill="#111827"/>
<path d="M325.314 69.4998V16.9583H333.828L336.316 23.022V69.4998H325.314ZM348.627 55.4372C343.999 55.4372 339.973 54.3836 336.545 52.2764C333.14 50.1691 331.438 47.8253 331.438 45.245L336.316 40.5036C336.316 42.6539 337.156 44.4494 338.837 45.8901C340.518 47.3092 342.504 48.0189 344.796 48.0189C347.263 48.0189 349.162 47.2232 350.494 45.632C351.825 44.0409 352.491 40.837 352.491 36.0204C352.491 31.2683 351.825 28.0859 350.494 26.4732C349.162 24.8605 347.263 24.0541 344.796 24.0541C342.504 24.0541 340.518 24.7852 338.837 26.2474C337.156 27.6881 336.316 29.4513 336.316 31.5371L331.438 26.8602C331.438 24.2799 333.14 21.9361 336.545 19.8288C339.973 17.7001 343.999 16.6357 348.627 16.6357C353.909 16.6357 357.73 18.3559 360.087 21.7964C362.444 25.2153 363.623 29.9458 363.623 35.9881C363.623 42.0089 362.444 46.7609 360.087 50.2444C357.73 53.7063 353.909 55.4372 348.627 55.4372Z" fill="#111827"/>
<path d="M383.27 55.5986C381.742 55.5986 380.236 55.5126 378.752 55.3405C377.289 55.1685 375.914 54.846 374.626 54.3729C373.338 53.8784 372.203 53.1902 371.221 52.3087C370.239 51.427 369.464 50.2874 368.896 48.8897C368.35 47.492 368.077 45.7826 368.077 43.7613C368.077 41.8046 368.35 40.1597 368.896 38.8265C369.464 37.4718 370.228 36.3645 371.188 35.5044C372.148 34.6443 373.261 33.9777 374.527 33.5046C375.794 33.0315 377.147 32.709 378.588 32.537C380.028 32.3435 381.491 32.2466 382.975 32.2466H395.221V30.763C395.221 29.0213 394.872 27.6451 394.174 26.6345C393.497 25.6239 392.558 24.9143 391.357 24.5057C390.178 24.0756 388.847 23.8607 387.363 23.8607C386.01 23.8607 384.776 24.0649 383.663 24.4735C382.549 24.882 381.611 25.5486 380.847 26.4732C380.105 27.3978 379.581 28.6342 379.275 30.1824L368.503 27.2151C368.896 25.3013 369.617 23.6779 370.664 22.3447C371.734 20.99 373.087 19.8934 374.724 19.0548C376.383 18.1947 378.271 17.5711 380.389 17.1841C382.527 16.7755 384.842 16.5712 387.33 16.5712C391.237 16.5712 394.61 17.0335 397.447 17.9582C400.285 18.8828 402.468 20.4202 403.996 22.5705C405.524 24.7208 406.288 27.6451 406.288 31.3435V55.1792H397.12L396.171 50.7927C395.909 51.3733 395.418 51.9539 394.697 52.5344C393.977 53.0935 393.049 53.6096 391.914 54.0826C390.8 54.5342 389.513 54.8997 388.05 55.1792C386.61 55.4588 385.016 55.5986 383.27 55.5986ZM385.759 48.793C386.828 48.793 387.887 48.6962 388.934 48.5026C390.004 48.3091 390.975 48.0296 391.848 47.6641C392.743 47.2985 393.486 46.8685 394.075 46.3739C394.665 45.8579 395.047 45.2988 395.221 44.6967L395.483 38.2459H385.562C384.689 38.2459 383.87 38.3104 383.106 38.4395C382.342 38.547 381.665 38.7835 381.076 39.149C380.509 39.5145 380.061 40.0414 379.734 40.7295C379.406 41.4176 379.243 42.3207 379.243 43.4388C379.243 44.5785 379.417 45.5031 379.767 46.2127C380.138 46.9007 380.629 47.4383 381.24 47.8253C381.873 48.1909 382.571 48.4489 383.335 48.5995C384.121 48.7285 384.929 48.793 385.759 48.793Z" fill="#111827"/>
<path d="M430.586 55.5663C423.339 55.5663 418.274 53.8784 415.393 50.5025C412.534 47.1051 411.104 42.3207 411.104 36.1494C411.104 29.8277 412.534 24.9896 415.393 21.6351C418.274 18.2807 423.339 16.6035 430.586 16.6035C437.025 16.6035 441.489 17.9797 443.977 20.732C446.488 23.4843 447.95 26.3764 448.365 29.4084L438.575 32.7628C438.4 29.8384 437.615 27.6666 436.217 26.2475C434.842 24.8068 432.965 24.0865 430.586 24.0865C428.228 24.0865 426.263 24.8928 424.692 26.5055C423.12 28.1182 422.335 31.3328 422.335 36.1494C422.335 40.7725 423.12 43.9226 424.692 45.5998C426.263 47.277 428.228 48.1157 430.586 48.1157C432.965 48.1157 434.842 47.363 436.217 45.8579C437.615 44.3527 438.4 42.2454 438.575 39.5361L448.365 43.0195C447.95 45.8363 446.488 48.6317 443.977 51.4056C441.489 54.1794 437.025 55.5663 430.586 55.5663Z" fill="#111827"/>
<path d="M472.682 55.5663C465.348 55.5663 460.207 53.8246 457.26 50.3411C454.335 46.8363 452.872 42.0734 452.872 36.0527C452.872 29.8814 454.346 25.097 457.293 21.6996C460.239 18.2807 465.304 16.5712 472.486 16.5712C479.842 16.5712 484.927 18.3022 487.744 21.7641C490.581 25.2261 492 29.9781 492 36.0204C492 37.2246 491.924 38.2996 491.771 39.2458H462.499V32.6982H481.49L481.097 33.6659C481.097 29.9889 480.333 27.3871 478.805 25.8604C477.298 24.3337 475.192 23.5703 472.486 23.5703C469.822 23.5703 467.661 24.3982 466.002 26.0539C464.344 27.7096 463.514 31.0425 463.514 36.0527C463.514 40.9552 464.333 44.2667 465.97 45.9869C467.628 47.7071 469.866 48.5672 472.682 48.5672V55.5663ZM472.682 48.5672C474.319 48.5672 475.672 48.3522 476.742 47.9221C477.811 47.492 478.663 46.7717 479.296 45.7611C479.951 44.7504 480.508 43.5571 480.966 42.1809L490.821 44.9225C490.341 47.4383 489.294 49.4703 487.678 51.0185C486.084 52.5667 484.153 53.7171 481.883 54.4697C479.634 55.2008 476.567 55.5663 472.682 55.5663V48.5672Z" fill="#111827"/>
</svg>