<svg xmlns="http://www.w3.org/2000/svg" width="498" height="70" viewBox="0 0 498 70" fill="none">
<path d="M0 13.125C0 5.87626 5.87629 0 13.125 0H56.8752C64.1242 0 70 5.87626 70 13.125V56.875C70 64.1236 64.1242 70 56.8752 70H13.125C5.87629 70 0 64.1236 0 56.875V13.125Z" fill="#111827"/>
<path d="M37.7783 16H40.1382C48.0795 16 52.7993 19.4715 54.2976 26.4144C54.7659 28.5178 55 30.9748 55 33.7855C55 36.5961 54.7003 39.2765 54.101 41.8266C53.5204 44.3767 52.6214 46.5545 51.404 48.36C48.8755 52.12 45.1202 54 40.1382 54H37.7783V16ZM18 16H33.1147V53.9442H18V16Z" fill="white"/>
<path d="M94 55.8931V13H116.656C122.78 13 127.063 14.5887 129.505 17.7659C131.945 20.9431 133.166 26.4928 133.166 34.4147C133.166 42.3579 131.945 47.9287 129.505 51.1272C127.063 54.3045 122.78 55.8931 116.656 55.8931H94ZM105.115 48.5536H113.648C116.525 48.5536 118.639 47.8016 119.991 46.2978C121.364 44.7726 122.05 40.8117 122.05 34.4147C122.05 28.0603 121.364 24.131 119.991 22.6271C118.639 21.102 116.525 20.3395 113.648 20.3395H105.115V48.5536Z" fill="#111827"/>
<path d="M156.958 56.2745C149.635 56.2745 144.502 54.5587 141.56 51.1273C138.639 47.6747 137.179 42.9829 137.179 37.052C137.179 30.9728 138.65 26.2599 141.592 22.9132C144.534 19.5453 149.591 17.8613 156.762 17.8613C164.107 17.8613 169.185 19.5665 171.996 22.9767C174.83 26.387 176.247 31.0681 176.247 37.0202C176.247 38.2064 176.17 39.2655 176.018 40.1975H146.79V33.7476H165.752L165.36 34.7008C165.36 31.0787 164.597 28.5158 163.071 27.0118C161.567 25.5079 159.464 24.756 156.762 24.756C154.103 24.756 151.945 25.5715 150.288 27.2025C148.632 28.8335 147.804 32.1167 147.804 37.052C147.804 41.8814 148.621 45.1435 150.256 46.838C151.912 48.5325 154.147 49.3798 156.958 49.3798V56.2745ZM156.958 49.3798C158.592 49.3798 159.944 49.168 161.012 48.7444C162.08 48.3207 162.929 47.6111 163.562 46.6156C164.216 45.62 164.772 44.4445 165.229 43.0888L175.069 45.7895C174.59 48.2678 173.544 50.2694 171.931 51.7945C170.34 53.3196 168.411 54.4528 166.145 55.1942C163.9 55.9144 160.837 56.2745 156.958 56.2745V49.3798Z" fill="#111827"/>
<path d="M181.644 55.8931V18.2425H190.176L192.661 23.898V55.8931H181.644ZM204.659 55.8931V34.7643C204.659 31.3117 204.234 28.8652 203.384 27.4248C202.534 25.9844 201.172 25.2643 199.298 25.2643C197.314 25.2643 195.69 26.0797 194.426 27.7108C193.184 29.3417 192.562 31.7989 192.562 35.082L186.744 32.8262C186.744 29.2464 188.356 25.8679 191.582 22.6907C194.807 19.5134 198.6 17.9248 202.959 17.9248C208.015 17.9248 211.394 19.5134 213.093 22.6907C214.794 25.8679 215.644 29.6065 215.644 33.9064V55.8931H204.659ZM227.544 55.8931V34.7643C227.544 31.3117 227.14 28.8652 226.334 27.4248C225.528 25.9844 224.177 25.2643 222.28 25.2643C220.297 25.2643 218.684 26.0797 217.442 27.7108C216.199 29.3417 215.578 31.7989 215.578 35.082L209.726 32.8262C209.726 29.3524 211.339 26.0056 214.565 22.786C217.791 19.5452 221.593 17.9248 225.974 17.9248C231.009 17.9248 234.354 19.5134 236.011 22.6907C237.689 25.8468 238.528 29.5853 238.528 33.9064V55.8931H227.544Z" fill="#111827"/>
<path d="M263.685 56.2109C256.58 56.2109 251.513 54.5481 248.483 51.2225C245.454 47.8758 243.939 43.0993 243.939 36.893C243.939 30.708 245.454 25.9844 248.483 22.7225C251.513 19.4393 256.58 17.7977 263.685 17.7977C270.768 17.7977 275.814 19.4393 278.822 22.7225C281.852 25.9844 283.366 30.708 283.366 36.893C283.366 43.0993 281.852 47.8758 278.822 51.2225C275.814 54.5481 270.768 56.2109 263.685 56.2109ZM263.685 48.9667C266.214 48.9667 268.295 48.1829 269.929 46.6155C271.564 45.0481 272.381 41.8284 272.381 36.9566C272.381 32.1059 271.564 28.9075 269.929 27.3613C268.295 25.815 266.214 25.0419 263.685 25.0419C261.135 25.0419 259.043 25.815 257.408 27.3613C255.774 28.9075 254.957 32.1059 254.957 36.9566C254.957 41.8284 255.774 45.0481 257.408 46.6155C259.043 48.1829 261.135 48.9667 263.685 48.9667Z" fill="#111827"/>
<path d="M307.882 56.2109C302.782 56.2109 298.489 55.4589 295.001 53.955C291.514 52.4511 289.258 49.8669 288.234 46.2025L297.846 42.771C298.347 44.9315 299.48 46.5519 301.246 47.6322C303.011 48.7125 305.277 49.2526 308.045 49.2526C310.334 49.2526 312.11 48.9137 313.375 48.2359C314.639 47.5369 315.271 46.5731 315.271 45.3446C315.271 43.6712 314.138 42.6016 311.871 42.1355C309.604 41.6696 306.705 41.1612 303.174 40.6105C298.75 39.9538 295.197 38.7783 292.516 37.0837C289.858 35.368 288.528 32.6038 288.528 28.791C288.528 25.063 290.174 22.32 293.465 20.5619C296.755 18.8038 301.071 17.9248 306.411 17.9248C311.62 17.9248 315.881 18.6661 319.194 20.1489C322.507 21.6104 324.632 24.131 325.569 27.7108L315.924 31.0786C315.423 29.1511 314.322 27.626 312.623 26.5034C310.922 25.3807 308.808 24.8195 306.28 24.8195C303.904 24.8195 302.15 25.169 301.016 25.8679C299.905 26.5669 299.349 27.5307 299.349 28.7592C299.349 30.369 300.428 31.4176 302.586 31.9047C304.744 32.3707 307.511 32.8579 310.89 33.3663C315.227 33.9806 318.845 35.0503 321.744 36.5753C324.664 38.0792 326.125 40.7376 326.125 44.5502C326.125 48.7231 324.544 51.7097 321.384 53.5102C318.224 55.3106 313.723 56.2109 307.882 56.2109Z" fill="#111827"/>
<path d="M331.569 70V18.2425H340.07L342.554 24.2157V70H331.569ZM354.846 56.1473C350.226 56.1473 346.205 55.1094 342.783 53.0336C339.383 50.9577 337.683 48.649 337.683 46.1071L342.554 41.4365C342.554 43.5547 343.393 45.3234 345.072 46.7426C346.749 48.1406 348.733 48.8396 351.021 48.8396C353.484 48.8396 355.38 48.0558 356.71 46.4884C358.039 44.921 358.704 41.7649 358.704 37.0201C358.704 32.339 358.039 29.204 356.71 27.6155C355.38 26.0268 353.484 25.2325 351.021 25.2325C348.733 25.2325 346.749 25.9526 345.072 27.3931C343.393 28.8122 342.554 30.5491 342.554 32.6038L337.683 27.9967C337.683 25.4549 339.383 23.1461 342.783 21.0702C346.205 18.9732 350.226 17.9248 354.846 17.9248C360.121 17.9248 363.935 19.6193 366.289 23.0084C368.643 26.3763 369.82 31.0363 369.82 36.9883C369.82 42.9193 368.643 47.6004 366.289 51.0319C363.935 54.4422 360.121 56.1473 354.846 56.1473Z" fill="#111827"/>
<path d="M389.436 56.3063C387.911 56.3063 386.407 56.2215 384.925 56.0521C383.464 55.8826 382.091 55.5649 380.806 55.0989C379.52 54.6117 378.386 53.9339 377.406 53.0654C376.425 52.197 375.651 51.0743 375.084 49.6975C374.54 48.3207 374.267 46.6367 374.267 44.6456C374.267 42.7181 374.54 41.0977 375.084 39.7844C375.651 38.45 376.414 37.3592 377.373 36.5119C378.331 35.6646 379.443 35.008 380.707 34.5419C381.971 34.076 383.322 33.7583 384.761 33.5888C386.199 33.3982 387.66 33.3028 389.142 33.3028H401.369V31.8413C401.369 30.1256 401.02 28.7699 400.323 27.7744C399.647 26.7789 398.71 26.0798 397.511 25.6774C396.334 25.2537 395.005 25.042 393.523 25.042C392.172 25.042 390.94 25.2431 389.828 25.6456C388.717 26.048 387.78 26.7047 387.017 27.6156C386.276 28.5263 385.753 29.7443 385.447 31.2694L374.692 28.3463C375.084 26.4611 375.804 24.8619 376.849 23.5486C377.918 22.2142 379.269 21.1339 380.904 20.3078C382.56 19.4605 384.445 18.8462 386.56 18.465C388.695 18.0626 391.005 17.8613 393.49 17.8613C397.391 17.8613 400.759 18.3167 403.592 19.2275C406.426 20.1383 408.605 21.6528 410.13 23.771C411.656 25.8892 412.419 28.7699 412.419 32.4132V55.8932H403.265L402.317 51.5721C402.056 52.144 401.565 52.7159 400.846 53.2879C400.127 53.8386 399.201 54.347 398.067 54.8129C396.955 55.2577 395.67 55.6178 394.209 55.8932C392.771 56.1686 391.18 56.3063 389.436 56.3063ZM391.921 49.6022C392.989 49.6022 394.046 49.5069 395.092 49.3162C396.16 49.1256 397.13 48.8503 398.002 48.4902C398.895 48.1301 399.636 47.7064 400.224 47.2192C400.813 46.7109 401.195 46.1602 401.369 45.5671L401.63 39.2125H391.724C390.853 39.2125 390.036 39.2761 389.273 39.4032C388.51 39.5091 387.834 39.7421 387.246 40.1022C386.679 40.4622 386.232 40.9812 385.906 41.659C385.578 42.3369 385.415 43.2265 385.415 44.3279C385.415 45.4506 385.589 46.3614 385.938 47.0604C386.309 47.7382 386.799 48.2678 387.409 48.649C388.042 49.0092 388.739 49.2633 389.502 49.4116C390.286 49.5387 391.092 49.6022 391.921 49.6022Z" fill="#111827"/>
<path d="M436.68 56.2744C429.444 56.2744 424.387 54.6117 421.51 51.2861C418.655 47.9394 417.227 43.2265 417.227 37.1473C417.227 30.9198 418.655 26.154 421.51 22.8495C424.387 19.5452 429.444 17.893 436.68 17.893C443.109 17.893 447.566 19.2486 450.051 21.9599C452.557 24.6712 454.017 27.5201 454.432 30.5068L444.656 33.8112C444.482 30.9304 443.698 28.7911 442.303 27.3931C440.93 25.9739 439.055 25.2643 436.68 25.2643C434.326 25.2643 432.364 26.0586 430.795 27.6472C429.225 29.2359 428.441 32.4025 428.441 37.1473C428.441 41.7013 429.225 44.8045 430.795 46.4567C432.364 48.1088 434.326 48.9349 436.68 48.9349C439.055 48.9349 440.93 48.1936 442.303 46.7109C443.698 45.2282 444.482 43.1523 444.656 40.4834L454.432 43.9149C454.017 46.6896 452.557 49.4433 450.051 52.1758C447.566 54.9082 443.109 56.2744 436.68 56.2744Z" fill="#111827"/>
<path d="M478.711 56.2745C471.388 56.2745 466.256 54.5587 463.313 51.1273C460.393 47.6747 458.932 42.9829 458.932 37.052C458.932 30.9728 460.403 26.2599 463.346 22.9132C466.288 19.5453 471.345 17.8613 478.515 17.8613C485.86 17.8613 490.938 19.5665 493.75 22.9767C496.583 26.387 498 31.0681 498 37.0202C498 38.2064 497.924 39.2655 497.771 40.1975H468.544V33.7476H487.506L487.113 34.7008C487.113 31.0787 486.35 28.5158 484.825 27.0118C483.321 25.5079 481.218 24.756 478.515 24.756C475.856 24.756 473.698 25.5715 472.042 27.2025C470.386 28.8335 469.557 32.1167 469.557 37.052C469.557 41.8814 470.375 45.1435 472.01 46.838C473.665 48.5325 475.9 49.3798 478.711 49.3798V56.2745ZM478.711 49.3798C480.346 49.3798 481.697 49.168 482.765 48.7444C483.833 48.3207 484.683 47.6111 485.315 46.6156C485.969 45.62 486.525 44.4445 486.983 43.0888L496.823 45.7895C496.343 48.2678 495.298 50.2694 493.684 51.7945C492.093 53.3196 490.165 54.4528 487.898 55.1942C485.653 55.9144 482.591 56.2745 478.711 56.2745V49.3798Z" fill="#111827"/>
</svg>